<svg role="img" viewBox="0 0 24 24" xmlns="http://www.w3.org/2000/svg"><title>Granola</title><path fill="none" stroke="#161616" stroke-width="1.9" stroke-linecap="round" stroke-linejoin="round" d="M 11.58 11.58 L 11.59 11.5 L 11.61 11.42 L 11.65 11.34 L 11.7 11.26 L 11.75 11.19 L 11.83 11.12 L 11.91 11.06 L 12.0 11.01 L 12.1 10.96 L 12.21 10.93 L 12.33 10.91 L 12.46 10.9 L 12.58 10.91 L 12.72 10.93 L 12.85 10.97 L 12.98 11.02 L 13.11 11.09 L 13.24 11.17 L 13.35 11.28 L 13.46 11.39 L 13.56 11.53 L 13.65 11.67 L 13.72 11.83 L 13.78 12.0 L 13.82 12.18 L 13.84 12.37 L 13.85 12.56 L 13.83 12.76 L 13.79 12.96 L 13.73 13.15 L 13.64 13.35 L 13.54 13.54 L 13.41 13.72 L 13.26 13.89 L 13.09 14.05 L 12.91 14.19 L 12.7 14.32 L 12.48 14.42 L 12.25 14.51 L 12.0 14.57 L 11.74 14.61 L 11.48 14.62 L 11.21 14.6 L 10.94 14.56 L 10.67 14.48 L 10.41 14.38 L 10.15 14.25 L 9.91 14.09 L 9.67 13.91 L 9.45 13.7 L 9.26 13.47 L 9.08 13.21 L 8.93 12.93 L 8.8 12.64 L 8.71 12.32 L 8.64 12.0 L 8.61 11.67 L 8.61 11.33 L 8.65 10.98 L 8.72 10.64 L 8.82 10.3 L 8.96 9.97 L 9.14 9.65 L 9.35 9.35 L 9.59 9.06 L 9.86 8.8 L 10.16 8.56 L 10.49 8.35 L 10.84 8.18 L 11.21 8.03 L 11.6 7.93 L 12.0 7.86 L 12.41 7.83 L 12.83 7.84 L 13.25 7.89 L 13.66 7.99 L 14.07 8.13 L 14.47 8.31 L 14.85 8.53 L 15.21 8.79 L 15.55 9.09 L 15.85 9.42 L 16.13 9.79 L 16.37 10.19 L 16.58 10.61 L 16.74 11.06 L 16.86 11.52 L 16.93 12.0 L 16.96 12.49 L 16.93 12.98 L 16.86 13.47 L 16.74 13.96 L 16.57 14.44 L 16.35 14.9 L 16.08 15.35 L 15.77 15.77 L 15.41 16.15 L 15.01 16.51 L 14.58 16.83 L 14.11 17.1 L 13.62 17.33 L 13.1 17.51 L 12.56 17.64 L 12.0 17.72 L 11.43 17.74 L 10.87 17.71 L 10.3 17.61 L 9.74 17.47 L 9.19 17.26 L 8.66 17.0 L 8.15 16.69 L 7.68 16.32 L 7.24 15.91 L 6.84 15.45 L 6.48 14.95 L 6.17 14.41 L 5.92 13.85 L 5.72 13.25 L 5.57 12.63 L 5.49 12.0 L 5.48 11.36 L 5.52 10.71 L 5.63 10.07 L 5.81 9.43 L 6.04 8.82 L 6.34 8.22 L 6.7 7.65 L 7.12 7.12 L 7.59 6.63 L 8.11 6.18 L 8.68 5.78 L 9.28 5.44 L 9.93 5.16 L 10.6 4.94 L 11.29 4.79 L 12.0 4.71 L 12.72 4.69 L 13.44 4.75 L 14.16 4.88 L 14.87 5.08 L 15.55 5.35 L 16.22 5.69 L 16.85 6.1 L 17.44 6.56 L 17.98 7.09 L 18.47 7.67 L 18.91 8.31 L 19.28 8.98 L 19.59 9.7 L 19.83 10.44 L 19.99 11.21 L 20.08 12.0 L 20.09 12.8 L 20.02 13.6 L 19.87 14.39 L 19.65 15.17 L 19.34 15.93 L 18.96 16.65 L 18.51 17.35 L 17.99 17.99 L 17.07 18.91 L 16.01 18.41"/></svg>
